ply
format ascii 1.0
comment created by MATLAB plywrite
element vertex 148
property float x
property float y
property float z
element face 168
property list uchar int vertex_indices
end_header
-32564.001726 0 39920.355490 
-35924.876977 1000 40000.000000 
-35623.901054 2000 39991.958124 
-35412.733374 3000 39983.144760 
-35419.918187 4000 40000.000000 
-35536.274950 5000 39932.526304 
-35790.194180 6000 39987.058142 
-36161.423616 7000 39985.824601 
-36844.889233 8000 40000.000000 
-38017.061580 9000 40000.000000 
-40000.000000 10000 40000.000000 
0.000000 0 39920.355490 
0.000000 1000 40000.000000 
0.000000 2000 39991.958124 
0.000000 3000 39983.144760 
0.000000 4000 40000.000000 
0.000000 5000 39932.526304 
0.000000 6000 39987.058142 
0.000000 7000 39985.824601 
0.000000 8000 40000.000000 
0.000000 9000 40000.000000 
0.000000 10000 40000.000000 
32564.001726 0 39920.355490 
35924.876977 1000 40000.000000 
35623.901054 2000 39991.958124 
35412.733374 3000 39983.144760 
35419.918187 4000 40000.000000 
35536.274950 5000 39932.526304 
35790.194180 6000 39987.058142 
36161.423616 7000 39985.824601 
36844.889233 8000 40000.000000 
38017.061580 9000 40000.000000 
40000.000000 10000 40000.000000 
-30000.000000 0 30000.000000 
-30000.000000 10000 30000.000000 
30000.000000 10000 30000.000000 
30000.000000 0 30000.000000 
-32564.001726 0 -38143.526696 
-35924.876977 1000 -40000.000000 
-35623.901054 2000 -40000.000000 
-35412.733374 3000 -40000.000000 
-35419.918187 4000 -40000.000000 
-35536.274950 5000 -40000.000000 
-35790.194180 6000 -40000.000000 
-36161.423616 7000 -40000.000000 
-36844.889233 8000 -40000.000000 
-38017.061580 9000 -40000.000000 
-40000.000000 10000 -40000.000000 
-32564.001726 0 0.000000 
-35924.876977 1000 0.000000 
-35623.901054 2000 0.000000 
-35412.733374 3000 0.000000 
-35419.918187 4000 0.000000 
-35536.274950 5000 0.000000 
-35790.194180 6000 0.000000 
-36161.423616 7000 0.000000 
-36844.889233 8000 0.000000 
-38017.061580 9000 0.000000 
-40000.000000 10000 0.000000 
-32564.001726 0 39920.355490 
-35924.876977 1000 40000.000000 
-35623.901054 2000 39991.958124 
-35412.733374 3000 39983.144760 
-35419.918187 4000 40000.000000 
-35536.274950 5000 39932.526304 
-35790.194180 6000 39987.058142 
-36161.423616 7000 39985.824601 
-36844.889233 8000 40000.000000 
-38017.061580 9000 40000.000000 
-40000.000000 10000 40000.000000 
-30000.000000 0 -30000.000000 
-30000.000000 10000 -30000.000000 
-30000.000000 10000 30000.000000 
-30000.000000 0 30000.000000 
32564.001726 0 -38143.526696 
35924.876977 1000 -40000.000000 
35623.901054 2000 -40000.000000 
35412.733374 3000 -40000.000000 
35419.918187 4000 -40000.000000 
35536.274950 5000 -40000.000000 
35790.194180 6000 -40000.000000 
36161.423616 7000 -40000.000000 
36844.889233 8000 -40000.000000 
38017.061580 9000 -40000.000000 
40000.000000 10000 -40000.000000 
-0.000000 0 -38143.526696 
-0.000000 1000 -40000.000000 
-0.000000 2000 -40000.000000 
-0.000000 3000 -40000.000000 
-0.000000 4000 -40000.000000 
-0.000000 5000 -40000.000000 
-0.000000 6000 -40000.000000 
-0.000000 7000 -40000.000000 
-0.000000 8000 -40000.000000 
-0.000000 9000 -40000.000000 
-0.000000 10000 -40000.000000 
-32564.001726 0 -38143.526696 
-35924.876977 1000 -40000.000000 
-35623.901054 2000 -40000.000000 
-35412.733374 3000 -40000.000000 
-35419.918187 4000 -40000.000000 
-35536.274950 5000 -40000.000000 
-35790.194180 6000 -40000.000000 
-36161.423616 7000 -40000.000000 
-36844.889233 8000 -40000.000000 
-38017.061580 9000 -40000.000000 
-40000.000000 10000 -40000.000000 
30000.000000 0 -30000.000000 
30000.000000 10000 -30000.000000 
-30000.000000 10000 -30000.000000 
-30000.000000 0 -30000.000000 
32564.001726 0 39920.355490 
35924.876977 1000 40000.000000 
35623.901054 2000 39991.958124 
35412.733374 3000 39983.144760 
35419.918187 4000 40000.000000 
35536.274950 5000 39932.526304 
35790.194180 6000 39987.058142 
36161.423616 7000 39985.824601 
36844.889233 8000 40000.000000 
38017.061580 9000 40000.000000 
40000.000000 10000 40000.000000 
32564.001726 0 -0.000000 
35924.876977 1000 -0.000000 
35623.901054 2000 -0.000000 
35412.733374 3000 -0.000000 
35419.918187 4000 -0.000000 
35536.274950 5000 -0.000000 
35790.194180 6000 -0.000000 
36161.423616 7000 -0.000000 
36844.889233 8000 -0.000000 
38017.061580 9000 -0.000000 
40000.000000 10000 -0.000000 
32564.001726 0 -38143.526696 
35924.876977 1000 -40000.000000 
35623.901054 2000 -40000.000000 
35412.733374 3000 -40000.000000 
35419.918187 4000 -40000.000000 
35536.274950 5000 -40000.000000 
35790.194180 6000 -40000.000000 
36161.423616 7000 -40000.000000 
36844.889233 8000 -40000.000000 
38017.061580 9000 -40000.000000 
40000.000000 10000 -40000.000000 
30000.000000 0 30000.000000 
30000.000000 10000 30000.000000 
30000.000000 10000 -30000.000000 
30000.000000 0 -30000.000000 
3 12 23 24 
3 11 22 23 
3 12 13 1 
3 2 14 3 
3 4 3 15 
3 19 18 30 
3 14 25 26 
3 15 26 27 
3 15 14 26 
3 13 25 14 
3 0 12 1 
3 11 23 12 
3 13 24 25 
3 13 12 24 
3 0 11 12 
3 13 2 1 
3 13 14 2 
3 3 14 15 
3 16 15 27 
3 16 4 15 
3 28 16 27 
3 5 4 16 
3 28 17 16 
3 5 16 17 
3 17 6 5 
3 17 18 6 
3 6 18 7 
3 20 9 8 
3 20 21 9 
3 9 21 10 
3 20 32 21 
3 28 29 17 
3 19 7 18 
3 8 19 20 
3 8 7 19 
3 29 18 17 
3 30 18 29 
3 31 19 30 
3 20 31 32 
3 20 19 31 
3 33 34 36 
3 34 35 36 
3 67 57 56 
3 63 64 53 
3 60 50 49 
3 49 38 48 
3 56 57 46 
3 41 52 42 
3 69 58 68 
3 68 57 67 
3 57 58 47 
3 57 68 58 
3 54 55 44 
3 67 56 66 
3 45 56 46 
3 55 66 56 
3 53 52 63 
3 51 61 62 
3 50 60 61 
3 65 54 64 
3 55 65 66 
3 55 54 65 
3 52 51 62 
3 52 62 63 
3 50 51 40 
3 50 61 51 
3 60 49 59 
3 50 39 49 
3 49 48 59 
3 38 37 48 
3 40 51 41 
3 49 39 38 
3 50 40 39 
3 53 43 42 
3 53 54 43 
3 53 64 54 
3 42 52 53 
3 41 51 52 
3 55 56 45 
3 57 47 46 
3 54 44 43 
3 55 45 44 
3 73 70 72 
3 70 71 72 
3 80 79 91 
3 76 88 77 
3 83 82 94 
3 105 93 104 
3 102 103 91 
3 86 87 75 
3 86 75 74 
3 95 84 83 
3 93 81 92 
3 81 80 92 
3 103 104 92 
3 93 82 81 
3 95 83 94 
3 106 95 94 
3 106 94 105 
3 105 94 93 
3 91 103 92 
3 104 93 92 
3 94 82 93 
3 90 102 91 
3 78 90 79 
3 92 80 91 
3 90 101 102 
3 88 100 89 
3 86 98 87 
3 98 99 87 
3 97 85 96 
3 97 86 85 
3 97 98 86 
3 88 89 77 
3 100 101 89 
3 99 88 87 
3 99 100 88 
3 79 90 91 
3 89 101 90 
3 89 78 77 
3 89 90 78 
3 87 76 75 
3 87 88 76 
3 86 74 85 
3 109 110 108 
3 110 107 108 
3 141 131 130 
3 137 138 127 
3 134 124 123 
3 123 112 122 
3 130 131 120 
3 115 126 116 
3 143 132 142 
3 142 131 141 
3 131 132 121 
3 131 142 132 
3 128 129 118 
3 141 130 140 
3 119 130 120 
3 129 140 130 
3 127 126 137 
3 125 135 136 
3 124 134 135 
3 139 128 138 
3 129 139 140 
3 129 128 139 
3 126 125 136 
3 126 136 137 
3 124 125 114 
3 124 135 125 
3 134 123 133 
3 124 113 123 
3 123 122 133 
3 112 111 122 
3 114 125 115 
3 123 113 112 
3 124 114 113 
3 127 117 116 
3 127 128 117 
3 127 138 128 
3 116 126 127 
3 115 125 126 
3 129 130 119 
3 131 121 120 
3 128 118 117 
3 129 119 118 
3 147 144 146 
3 144 145 146 
