ply
format ascii 1.0
comment created by MATLAB plywrite
element vertex 111
property float x
property float y
property float z
element face 126
property list uchar int vertex_indices
end_header
-68954.070794 0 38884.876700 
-69105.574300 1000 39076.506541 
-69091.938519 2000 39063.172379 
-69082.133688 3000 39080.669180 
-69083.708943 4000 39127.487333 
-69083.686811 5000 39209.277242 
-69098.771724 6000 39303.290891 
-69114.753915 7000 39421.511218 
-69145.411999 8000 39582.328064 
-69196.168550 9000 39780.380575 
-69282.032303 10000 40000.000000 
0.000000 0 38695.528035 
0.000000 1000 38974.628465 
0.000000 2000 38953.421681 
0.000000 3000 38965.257661 
0.000000 4000 39012.985287 
0.000000 5000 39094.762419 
0.000000 6000 39197.485347 
0.000000 7000 39324.932996 
0.000000 8000 39503.450295 
0.000000 9000 39730.807114 
0.000000 10000 40000.000000 
68820.808635 0 38961.815644 
69105.574300 1000 39076.506541 
69092.541660 2000 39062.824155 
69083.397831 3000 39079.939327 
69083.708943 4000 39127.487333 
69088.747338 5000 39206.355546 
69099.742364 6000 39302.730492 
69115.817070 7000 39420.897405 
69145.411999 8000 39582.328064 
69196.168550 9000 39780.380575 
69282.032303 10000 40000.000000 
-51961.524227 0 30000.000000 
-51961.524227 10000 30000.000000 
51961.524227 10000 30000.000000 
51961.524227 0 30000.000000 
-133.262160 0 -79544.363726 
-0.000000 1000 -79796.243849 
0.603141 2000 -79780.846829 
1.264143 3000 -79769.906815 
-0.000000 4000 -79770.995909 
5.060527 5000 -79773.892051 
0.970639 6000 -79788.949310 
1.063155 7000 -79807.457368 
-0.000000 8000 -79842.244462 
-0.000000 9000 -79900.853079 
-0.000000 10000 -80000.000000 
-34313.054643 0 -19810.651335 
-34464.558148 1000 -19898.121924 
-34450.922368 2000 -19890.249303 
-34441.117537 3000 -19884.588481 
-34442.692791 4000 -19885.497955 
-34442.670660 5000 -19885.485177 
-34457.755573 6000 -19894.194456 
-34473.737763 7000 -19903.421778 
-34504.395848 8000 -19921.122231 
-34555.152399 9000 -19950.426540 
-34641.016151 10000 -20000.000000 
-68954.070794 0 38884.876700 
-69105.574300 1000 39076.506541 
-69091.938519 2000 39063.172379 
-69082.133688 3000 39080.669180 
-69083.708943 4000 39127.487333 
-69083.686811 5000 39209.277242 
-69098.771724 6000 39303.290891 
-69114.753915 7000 39421.511218 
-69145.411999 8000 39582.328064 
-69196.168550 9000 39780.380575 
-69282.032303 10000 40000.000000 
-0.000000 0 -60000.000000 
-0.000000 10000 -60000.000000 
-51961.524227 10000 30000.000000 
-51961.524227 0 30000.000000 
68820.808635 0 38961.815644 
69105.574300 1000 39076.506541 
69092.541660 2000 39062.824155 
69083.397831 3000 39079.939327 
69083.708943 4000 39127.487333 
69088.747338 5000 39206.355546 
69099.742364 6000 39302.730492 
69115.817070 7000 39420.897405 
69145.411999 8000 39582.328064 
69196.168550 9000 39780.380575 
69282.032303 10000 40000.000000 
34179.792483 0 -19733.712391 
34464.558148 1000 -19898.121924 
34451.525509 2000 -19890.597526 
34442.381680 3000 -19885.318334 
34442.692791 4000 -19885.497955 
34447.731187 5000 -19888.406874 
34458.726212 6000 -19894.754855 
34474.800918 7000 -19904.035590 
34504.395848 8000 -19921.122231 
34555.152399 9000 -19950.426540 
34641.016151 10000 -20000.000000 
-133.262160 0 -79544.363726 
-0.000000 1000 -79796.243849 
0.603141 2000 -79780.846829 
1.264143 3000 -79769.906815 
-0.000000 4000 -79770.995909 
5.060527 5000 -79773.892051 
0.970639 6000 -79788.949310 
1.063155 7000 -79807.457368 
-0.000000 8000 -79842.244462 
-0.000000 9000 -79900.853079 
-0.000000 10000 -80000.000000 
51961.524227 0 30000.000000 
51961.524227 10000 30000.000000 
-0.000000 10000 -60000.000000 
-0.000000 0 -60000.000000 
3 12 23 24 
3 11 22 23 
3 12 13 1 
3 2 14 3 
3 4 3 15 
3 19 18 30 
3 14 25 26 
3 15 26 27 
3 15 14 26 
3 13 25 14 
3 0 12 1 
3 11 23 12 
3 13 24 25 
3 13 12 24 
3 0 11 12 
3 13 2 1 
3 13 14 2 
3 3 14 15 
3 16 15 27 
3 16 4 15 
3 28 16 27 
3 5 4 16 
3 28 17 16 
3 5 16 17 
3 17 6 5 
3 17 18 6 
3 6 18 7 
3 20 9 8 
3 20 21 9 
3 9 21 10 
3 20 32 21 
3 28 29 17 
3 19 7 18 
3 8 19 20 
3 8 7 19 
3 29 18 17 
3 30 18 29 
3 31 19 30 
3 20 31 32 
3 20 19 31 
3 33 34 36 
3 34 35 36 
3 43 42 54 
3 39 51 40 
3 46 45 57 
3 68 56 67 
3 65 66 54 
3 49 50 38 
3 49 38 37 
3 58 47 46 
3 56 44 55 
3 44 43 55 
3 66 67 55 
3 56 45 44 
3 58 46 57 
3 69 58 57 
3 69 57 68 
3 68 57 56 
3 54 66 55 
3 67 56 55 
3 57 45 56 
3 53 65 54 
3 41 53 42 
3 55 43 54 
3 53 64 65 
3 51 63 52 
3 49 61 50 
3 61 62 50 
3 60 48 59 
3 60 49 48 
3 60 61 49 
3 51 52 40 
3 63 64 52 
3 62 51 50 
3 62 63 51 
3 42 53 54 
3 52 64 53 
3 52 41 40 
3 52 53 41 
3 50 39 38 
3 50 51 39 
3 49 37 48 
3 72 73 71 
3 73 70 71 
3 80 79 91 
3 76 88 77 
3 105 93 104 
3 102 103 91 
3 86 87 75 
3 86 75 74 
3 83 82 94 
3 93 81 92 
3 81 80 92 
3 103 104 92 
3 93 82 81 
3 95 84 83 
3 95 83 94 
3 106 95 94 
3 106 94 105 
3 105 94 93 
3 91 103 92 
3 104 93 92 
3 94 82 93 
3 90 102 91 
3 78 90 79 
3 92 80 91 
3 90 101 102 
3 88 100 89 
3 86 98 87 
3 98 99 87 
3 97 85 96 
3 97 86 85 
3 97 98 86 
3 88 89 77 
3 100 101 89 
3 99 88 87 
3 99 100 88 
3 79 90 91 
3 89 101 90 
3 89 78 77 
3 89 90 78 
3 87 76 75 
3 87 88 76 
3 86 74 85 
3 109 110 108 
3 110 107 108 
